<svg id="Layer_1" data-name="Layer 1" xmlns="http://www.w3.org/2000/svg" viewBox="0 0 137.78 150.16"><defs><style>.cls-1{fill:#fdeaeb;fill-rule:evenodd;}</style></defs><title>PBS book iconsvg</title><path class="cls-1" d="M141.8,64.27,97.83,183,71,172.51,115,53.82a6.81,6.81,0,0,1,8.71-4.26l14.33,5.59a7.08,7.08,0,0,1,3.74,9.12Z" transform="translate(-7.83 -40.48)"/><path class="cls-1" d="M145,59.76,96.73,190l-3.14-1.21L140.57,62c1.65-4.46.12-9.24-3.41-10.63l-14.76-5.75c-3.54-1.38-7.77,1.15-9.44,5.61L66,178l-3.13-1.24L111.1,46.54c1.77-4.73,6.74-7.23,11.08-5.54l18.12,7.08c4.33,1.68,6.45,6.94,4.68,11.68Z" transform="translate(-7.83 -40.48)"/><path class="cls-1" d="M42.4,180.28,103.26,69.14,77.91,55.57,17.07,166.69a6.88,6.88,0,0,0,2.48,9.44l13.54,7.26a7,7,0,0,0,9.32-3.11Z" transform="translate(-7.83 -40.48)"/><path class="cls-1" d="M41.07,185.65l66.78-122-3-1.59-65,118.7c-2.28,4.18-6.9,6.13-10.22,4.35l-14-7.48c-3.33-1.78-4.2-6.68-1.91-10.85l65-118.7-3-1.59L9,168.48c-2.42,4.45-1.06,9.87,3,12.06l17.14,9.17c4.1,2.19,9.44.36,11.86-4.07Z" transform="translate(-7.83 -40.48)"/><path class="cls-1" d="M141.8,64.27,97.83,183,71,172.51,115,53.82a6.81,6.81,0,0,1,8.71-4.26l14.33,5.59a7.08,7.08,0,0,1,3.74,9.12Z" transform="translate(-7.83 -40.48)"/><path class="cls-1" d="M145,59.76,96.73,190l-3.14-1.21L140.57,62c1.65-4.46.12-9.24-3.41-10.63l-14.76-5.75c-3.54-1.38-7.77,1.15-9.44,5.61L66,178l-3.13-1.24L111.1,46.54c1.77-4.73,6.74-7.23,11.08-5.54l18.12,7.08c4.33,1.68,6.45,6.94,4.68,11.68Z" transform="translate(-7.83 -40.48)"/><path class="cls-1" d="M42.4,180.28,103.26,69.14,77.91,55.57,17.07,166.69a6.88,6.88,0,0,0,2.48,9.44l13.54,7.26a7,7,0,0,0,9.32-3.11Z" transform="translate(-7.83 -40.48)"/><path class="cls-1" d="M41.07,185.65l66.78-122-3-1.59-65,118.7c-2.28,4.18-6.9,6.13-10.22,4.35l-14-7.48c-3.33-1.78-4.2-6.68-1.91-10.85l65-118.7-3-1.59L9,168.48c-2.42,4.45-1.06,9.87,3,12.06l17.14,9.17c4.1,2.19,9.44.36,11.86-4.07Z" transform="translate(-7.83 -40.48)"/></svg>